<svg id="Layer_1" enable-background="new 0 0 256 256" height="512" viewBox="0 0 256 256" width="512" xmlns="http://www.w3.org/2000/svg"><g><g><g><g><g><g><g><g><path d="m80.62 194.439c-10.572 0-19.142 8.57-19.142 19.142s8.57 19.142 19.142 19.142 19.142-8.57 19.142-19.142-8.57-19.142-19.142-19.142z" fill="#827f7e"/></g></g></g><g><path d="m80.62 219.074c-3.29 0-6.138-2.285-6.851-5.496l-5.331-24.002h24.363l-5.331 24.002c-.713 3.212-3.561 5.496-6.85 5.496z" fill="#e8c197"/></g></g></g><g><g><g><g><g><path d="m188.569 194.439c-10.572 0-19.142 8.57-19.142 19.142s8.57 19.142 19.142 19.142 19.142-8.57 19.142-19.142-8.57-19.142-19.142-19.142z" fill="#827f7e"/></g></g></g><g><path d="m188.569 219.074c-3.29 0-6.138-2.285-6.851-5.496l-5.331-24.002h24.363l-5.331 24.002c-.713 3.212-3.561 5.496-6.85 5.496z" fill="#e8c197"/></g></g></g></g><g><path d="m222.812 72.514h-153.876v-19.138c0-3.157-1.857-6.019-4.74-7.306l-25.621-11.433-3.883 8.716 22.331 9.949c1.443.643 2.372 2.074 2.372 3.654v127.855c0 2.635 2.136 4.771 4.771 4.771h143.449c2.789 0 5.02-2.395 4.748-5.24-.237-2.48-2.462-4.302-4.954-4.302h-138.473v-15.876h137.001c3.747 0 6.992-2.601 7.808-6.258l16.874-75.65c1.115-4.998-2.687-9.742-7.807-9.742z" fill="#fedbb0"/></g><g><g><path d="m164.833 99.716h18.933c1.105 0 2-.895 2-2v-13.66c0-1.105-.895-2-2-2h-18.933c-1.105 0-2 .895-2 2v13.66c0 1.105.895 2 2 2z" fill="#d1ab86"/></g><g><path d="m164.833 127.42h18.933c1.105 0 2-.895 2-2v-14.162c0-1.105-.895-2-2-2h-18.933c-1.105 0-2 .895-2 2v14.162c0 1.105.895 2 2 2z" fill="#d1ab86"/></g><g><path d="m197.308 127.42h12.093c.937 0 1.748-.65 1.952-1.565l3.159-14.162c.279-1.249-.672-2.435-1.952-2.435h-15.252c-1.105 0-2 .895-2 2v14.162c0 1.105.895 2 2 2z" fill="#d1ab86"/></g><g><path d="m99.883 127.42h18.933c1.105 0 2-.895 2-2v-14.162c0-1.105-.895-2-2-2h-18.933c-1.105 0-2 .895-2 2v14.162c0 1.105.895 2 2 2z" fill="#d1ab86"/></g><g><path d="m132.358 127.42h18.933c1.105 0 2-.895 2-2v-14.162c0-1.105-.895-2-2-2h-18.933c-1.105 0-2 .895-2 2v14.162c0 1.105.895 2 2 2z" fill="#d1ab86"/></g><g><path d="m99.883 154.622h18.933c1.105 0 2-.895 2-2v-13.66c0-1.105-.895-2-2-2h-18.933c-1.105 0-2 .895-2 2v13.66c0 1.105.895 2 2 2z" fill="#d1ab86"/></g><g><path d="m132.358 154.622h18.933c1.105 0 2-.895 2-2v-13.66c0-1.105-.895-2-2-2h-18.933c-1.105 0-2 .895-2 2v13.66c0 1.105.895 2 2 2z" fill="#d1ab86"/></g><g><path d="m164.833 154.622h18.933c1.105 0 2-.895 2-2v-13.66c0-1.105-.895-2-2-2h-18.933c-1.105 0-2 .895-2 2v13.66c0 1.105.895 2 2 2z" fill="#d1ab86"/></g><g><path d="m132.358 99.716h18.933c1.105 0 2-.895 2-2v-13.66c0-1.105-.895-2-2-2h-18.933c-1.105 0-2 .895-2 2v13.66c0 1.105.895 2 2 2z" fill="#d1ab86"/></g><g><path d="m99.883 99.716h18.933c1.105 0 2-.895 2-2v-13.66c0-1.105-.895-2-2-2h-18.933c-1.105 0-2 .895-2 2v13.66c0 1.105.895 2 2 2z" fill="#d1ab86"/></g><g><path d="m70.936 99.716h15.404c1.105 0 2-.895 2-2v-13.66c0-1.105-.895-2-2-2h-15.404c-1.105 0-2 .895-2 2v13.66c0 1.105.896 2 2 2z" fill="#d1ab86"/></g><g><path d="m70.936 127.42h15.404c1.105 0 2-.895 2-2v-14.162c0-1.105-.895-2-2-2h-15.404c-1.105 0-2 .895-2 2v14.162c0 1.105.896 2 2 2z" fill="#d1ab86"/></g><g><path d="m70.936 154.622h15.404c1.105 0 2-.895 2-2v-13.66c0-1.105-.895-2-2-2h-15.404c-1.105 0-2 .895-2 2v13.66c0 1.105.896 2 2 2z" fill="#d1ab86"/></g><g><path d="m197.308 154.622h6.026c.937 0 1.748-.65 1.952-1.565l3.047-13.66c.279-1.249-.672-2.435-1.952-2.435h-9.073c-1.105 0-2 .895-2 2v13.66c0 1.105.895 2 2 2z" fill="#d1ab86"/></g><g><path d="m195.308 84.056v13.66c0 1.105.895 2 2 2h18.273c.937 0 1.748-.65 1.952-1.565l3.047-13.66c.279-1.249-.672-2.435-1.952-2.435h-21.32c-1.105 0-2 .896-2 2z" fill="#d1ab86"/></g></g><g><path d="m17.076 30.282c1.83-4.108 6.644-5.954 10.751-4.124l24.775 11.038c4.108 1.83 5.954 6.644 4.124 10.751-1.83 4.108-6.644 5.954-10.751 4.124l-24.775-11.038c-4.108-1.83-5.954-6.644-4.124-10.751z" fill="#827f7e"/></g></g><path d="m232.175 73.009c-2.29-2.857-5.703-4.495-9.363-4.495h-149.876v-15.138c0-4.73-2.791-9.031-7.11-10.958l-5.294-2.362c-1.174-2.875-3.425-5.231-6.302-6.513l-24.775-11.039c-1.568-.699-3.229-1.053-4.937-1.053-4.791 0-9.146 2.827-11.096 7.203-2.725 6.116.034 13.308 6.15 16.033l24.775 11.038c1.568.699 3.229 1.053 4.936 1.053 1.402 0 2.791-.244 4.105-.716l2.006.894v127.855c0 4.836 3.935 8.771 8.771 8.771h1.065l.505 2.275c-5.216 4.373-8.258 10.814-8.258 17.724 0 12.761 10.382 23.142 23.142 23.142s23.142-10.382 23.142-23.142c0-6.91-3.042-13.351-8.258-17.724l.505-2.275h77.17l.505 2.275c-5.216 4.373-8.258 10.814-8.258 17.724 0 12.761 10.382 23.142 23.142 23.142s23.142-10.382 23.142-23.142c0-6.91-3.042-13.351-8.258-17.724l.505-2.275h3.657c2.466 0 4.832-1.047 6.491-2.872 1.658-1.824 2.475-4.284 2.239-6.748-.424-4.442-4.349-7.922-8.936-7.922h-134.471v-7.876h133.001c5.663 0 10.479-3.86 11.712-9.388l16.874-75.65c.798-3.572-.058-7.26-2.348-10.117zm-1.555 9.247-16.874 75.65c-.816 3.657-4.061 6.258-7.808 6.258h-137.002v15.876h138.473c2.492 0 4.717 1.821 4.954 4.302.272 2.845-1.959 5.24-4.748 5.24h-6.866l-1.763 7.937c5.252 3.413 8.725 9.332 8.725 16.062 0 10.572-8.57 19.142-19.142 19.142s-19.142-8.57-19.142-19.142c0-6.73 3.473-12.649 8.725-16.062l-1.763-7.937h-83.589l-1.763 7.937c5.252 3.413 8.725 9.332 8.725 16.062 0 10.572-8.57 19.142-19.142 19.142s-19.142-8.57-19.142-19.142c0-6.73 3.473-12.649 8.725-16.062l-1.763-7.937h-4.274c-2.635 0-4.771-2.136-4.771-4.771v-127.855c0-1.579-.929-3.011-2.372-3.654l-3.648-1.625c-1.235.715-2.648 1.101-4.091 1.101-1.107 0-2.232-.227-3.308-.707l-24.776-11.038c-4.108-1.83-5.954-6.644-4.124-10.751 1.35-3.031 4.325-4.831 7.442-4.831 1.107 0 2.233.227 3.309.707l24.775 11.038c2.485 1.107 4.141 3.306 4.658 5.779l6.936 3.095c2.883 1.287 4.74 4.148 4.74 7.306v19.138h153.875c5.121 0 8.923 4.744 7.809 9.742z" fill="#422618"/></g></svg>